<?xml version="1.0" encoding="utf-8"?>
<!-- Generator: Adobe Illustrator 18.0.0, SVG Export Plug-In . SVG Version: 6.00 Build 0)  -->
<!DOCTYPE svg PUBLIC "-//W3C//DTD SVG 1.1//EN" "http://www.w3.org/Graphics/SVG/1.1/DTD/svg11.dtd">
<svg version="1.1" id="Capa_1" xmlns="http://www.w3.org/2000/svg" xmlns:xlink="http://www.w3.org/1999/xlink" x="0px" y="0px"
	 viewBox="0 -24.2 793.6 824.2" enable-background="new 0 -24.2 793.6 824.2" xml:space="preserve">
<g id="Captions">
</g>
<g id="Your_Icon">
	<g>
		<path fill="#0971B7" d="M769.4,644.2L608.7,496.5c36.6-53.2,59.1-118.2,59.1-187.9c0-182-148.9-330.9-330.9-330.9S6,126.7,6,308.6
			s148.9,330.9,330.9,330.9c50.8,0,98.1-11.8,140.6-31.9L647.7,766c15.4,15.4,36.6,24.8,59.1,24.8c22.5,0,44.9-9.5,61.4-24.8
			C801.3,731.7,802.5,677.3,769.4,644.2z M138.3,308.6c0-109.9,88.6-199.7,198.5-199.7s198.5,88.6,198.5,198.5S446.8,506,336.9,506
			C227,507.2,138.3,417.4,138.3,308.6z"/>
	</g>
</g>
</svg>
